<?xml version="1.0" standalone="no"?>
<!DOCTYPE svg PUBLIC "-//W3C//DTD SVG 20010904//EN"
 "http://www.w3.org/TR/2001/REC-SVG-20010904/DTD/svg10.dtd">
<svg version="1.0" xmlns="http://www.w3.org/2000/svg"
 width="256.000000pt" height="256.000000pt" viewBox="0 0 256.000000 256.000000"
 preserveAspectRatio="xMidYMid meet">

<g transform="translate(0.000000,256.000000) scale(0.100000,-0.100000)"
fill="#000000" stroke="none">
<path d="M92 2468 c-17 -17 -17 -2359 0 -2376 17 -17 1879 -17 1896 0 9 9 12
71 12 220 l0 207 153 3 152 3 90 177 c109 216 110 212 -23 216 l-90 3 -12 52
c-30 124 -116 239 -219 291 l-51 26 0 583 c0 440 -3 586 -12 595 -17 17 -1879
17 -1896 0z m1828 -610 l0 -543 -177 3 c-198 4 -256 -4 -345 -49 -103 -52
-202 -176 -223 -279 -14 -73 -8 -69 -107 -72 -133 -4 -132 0 -23 -216 l90
-177 393 -3 392 -2 0 -180 0 -180 -880 0 -880 0 0 1120 0 1120 880 0 880 0 0
-542z m65 -651 c100 -47 169 -126 199 -227 9 -30 16 -55 16 -57 0 -2 -216 -3
-480 -3 l-480 0 6 28 c21 92 87 187 165 237 73 47 120 55 324 52 185 -2 192
-3 250 -30z m385 -372 c0 -3 -26 -57 -57 -120 l-58 -115 -535 0 -535 0 -58
115 c-31 63 -57 117 -57 120 0 3 293 5 650 5 358 0 650 -2 650 -5z"/>
<path d="M412 2028 c-16 -16 -15 -43 2 -57 9 -8 157 -10 531 -9 481 3 519 4
529 21 8 12 8 22 0 35 -10 16 -48 17 -531 20 -395 2 -522 -1 -531 -10z"/>
<path d="M412 1828 c-16 -16 -15 -43 2 -57 9 -8 136 -10 451 -9 404 3 439 4
449 21 8 12 8 22 0 35 -10 16 -45 17 -450 20 -334 2 -443 -1 -452 -10z"/>
<path d="M412 1628 c-16 -16 -15 -43 2 -57 9 -8 100 -11 311 -9 271 3 299 5
309 21 8 12 8 22 0 35 -10 15 -38 17 -310 20 -225 2 -303 -1 -312 -10z"/>
<path d="M412 1428 c-16 -16 -15 -43 2 -57 9 -8 74 -11 211 -9 176 3 199 5
209 21 8 12 8 22 0 35 -10 15 -33 17 -210 20 -147 2 -203 -1 -212 -10z"/>
<path d="M412 1228 c-6 -6 -12 -20 -12 -29 0 -34 24 -40 165 -37 119 3 139 5
149 21 8 12 8 22 0 35 -10 15 -31 17 -150 20 -100 2 -143 -1 -152 -10z"/>
<path d="M411 1026 c-19 -22 -10 -126 12 -140 32 -20 52 4 55 68 3 61 -8 86
-38 86 -10 0 -23 -6 -29 -14z"/>
<path d="M571 1026 c-19 -22 -10 -126 12 -140 32 -20 52 4 55 68 3 61 -8 86
-38 86 -10 0 -23 -6 -29 -14z"/>
<path d="M731 1026 c-19 -22 -10 -126 12 -140 32 -20 52 4 55 68 3 61 -8 86
-38 86 -10 0 -23 -6 -29 -14z"/>
<path d="M1572 1188 c-16 -16 -15 -43 2 -57 22 -19 126 -10 140 12 8 12 8 22
0 35 -14 21 -122 30 -142 10z"/>
<path d="M1412 1068 c-16 -16 -15 -43 2 -57 22 -19 126 -10 140 12 8 12 8 22
0 35 -14 21 -122 30 -142 10z"/>
<path d="M1732 1068 c-16 -16 -15 -43 2 -57 22 -19 126 -10 140 12 8 12 8 22
0 35 -14 21 -122 30 -142 10z"/>
</g>
</svg>
